<svg xmlns="http://www.w3.org/2000/svg" width="32.248" height="29.853" viewBox="0 0 32.248 29.853">
  <path id="Path_646" data-name="Path 646" d="M388.083,3739.172a12.047,12.047,0,0,0,1.256,4.049c.045.112.158.341.158.341,3.553,5.329,5.384,6.63,8.6,10.054q2.443,2.6,4.845,4.919l.348.378H405l.286-.311c1.427-1.537,3.393-3.507,4.9-4.986l4.205-4.278h.034c3.021-3.255,5.36-6.527,5.772-10.167h.063v-1.137a8.777,8.777,0,0,0-2.758-6.444,9.054,9.054,0,0,0-4.078-2.238,9.421,9.421,0,0,0-7.128,1.388l-.006-.012a9.84,9.84,0,0,0-2.144,2.161,8.988,8.988,0,0,0-4.545-3.423,8.558,8.558,0,0,0-4.69-.15,9.227,9.227,0,0,0-4.07,2.205,8.815,8.815,0,0,0-2.829,6.513" transform="translate(-388.019 -3729.06)" fill="#fff"/>
</svg>
