<svg xmlns="http://www.w3.org/2000/svg" width="19.595" height="18.14" viewBox="0 0 19.595 18.14">
  <g id="Group_484" data-name="Group 484" transform="translate(-1345.887 -3168.289)">
    <path id="Path_634" data-name="Path 634" d="M1345.925,3174.433a7.316,7.316,0,0,0,.764,2.46c.027.069.1.208.1.208a35.921,35.921,0,0,0,5.223,6.109q1.485,1.582,2.944,2.989l.212.23h1.042l.174-.189c.867-.934,2.062-2.131,2.98-3.03l2.556-2.6h.02c1.836-1.977,3.257-3.966,3.507-6.178h.039v-.69a5.333,5.333,0,0,0-1.676-3.916,5.5,5.5,0,0,0-2.478-1.36,5.726,5.726,0,0,0-4.331.843l0-.007a5.994,5.994,0,0,0-1.3,1.313,5.462,5.462,0,0,0-2.761-2.08,5.2,5.2,0,0,0-2.85-.091,5.605,5.605,0,0,0-2.473,1.34,5.354,5.354,0,0,0-1.719,3.958" fill="#00a7e1" fill-rule="evenodd"/>
  </g>
</svg>
