<svg xmlns="http://www.w3.org/2000/svg" width="529.956" height="525.843" viewBox="0 0 529.956 525.843">
  <g id="Group_499" data-name="Group 499" transform="translate(-185.101 -2154)" opacity="0.1">
    <path id="Path_639" data-name="Path 639" d="M600.927,2466.677c-15.625-24.684-32.021-51.356-48.786-79.438-24.958-41.829-47.635-81.673-67-117.407-13.185-24.272-24.982-46.972-35.06-67.4q-7.683,15.643-16.1,31.75-10.623,20.307-21.339,39.256c-2.992-6.486-6.823-9.43-9.1-10.8-2.752-1.655-6.1-2.71-12.52-4.782-1.551-.5-3.1-.967-4.664-1.412l.878-1.617-5.308,10.6q15.409-28.525,30.688-58.765,10.4-20.622,20.109-40.831L438.185,2154h23.788l5.458,11.836c11.5,24.492,26.953,54.744,45.484,88.937v.063q30.963,56.822,66.289,116.214,40.553,67.987,81.111,129.372l-21.363,24.033" fill="#fff" fill-rule="evenodd"/>
    <path id="Path_640" data-name="Path 640" d="M707.212,2567.645l7.845,10.494-11.818,20.811-12.934-1.292c-28.31-2.7-63.37-4.916-103-6.467-40.647-1.593-87.153-2.494-137.23-2.494q-19.338,0-37.932.175-7.425-7.28-14.771-14.477l-.1-.087q-8.529-8.348-16.927-16.6c22.645-.422,45.987-.64,69.727-.64,48.72,0,95.737.933,138.469,2.616,28.266,1.108,54.21,2.539,77.085,4.242-9.758-13.77-20.153-28.95-31.014-45.269q3.777-4.835,7.358-9.7,6.528-8.886,12.294-17.873c19.771,30.034,37.739,56.023,52.942,76.564" fill="#fff" fill-rule="evenodd"/>
    <path id="Path_641" data-name="Path 641" d="M348.016,2387.238c-15.225,25.593-38.518,64.639-71.53,114.8-16.6,25.23-31.073,46.294-41.963,61.882q15.828-1.141,31.909-2.088,58.531-3.439,114.166-4c22.2,1.321,36.831,10.332,37.384,19.36.1,1.7-.139,5.866-6.008,11.349q-48.072.437-99.126,2.649-53.163,2.359-103,6.467l-12.934,1.292L185.1,2578.14l7.843-10.495c16.254-21.971,35.689-50.174,57.1-82.912,30.482-46.615,52.358-82.65,70.912-113.684,18.385-30.752,40.812-69.259,65.653-114.3,1.2-.506,9.871-3.988,18.692.667a21.98,21.98,0,0,1,10.014,11.349C390.326,2314.87,367.385,2354.678,348.016,2387.238Z" fill="#fff" fill-rule="evenodd"/>
    <path id="Path_642" data-name="Path 642" d="M593.148,2546.715c42.014-45.258,74.543-90.768,80.263-141.377h.889v-15.809a122.079,122.079,0,0,0-38.357-89.618,127.558,127.558,0,0,0-56.707-31.117,121.01,121.01,0,0,0-45.13-2.62q8.32,15.09,17.069,30.558a91.4,91.4,0,0,1,20.52,2.715,95.661,95.661,0,0,1,42.5,23.329,90.864,90.864,0,0,1,28.472,66.753v.3c-.162,53.277-40.929,103.593-91.84,155.46,13.162.359,25.934.78,38.226,1.26Z" fill="#fff" fill-rule="evenodd"/>
    <path id="Path_643" data-name="Path 643" d="M438.164,2679.843l-4.85-5.251c-19.619-21.073-46.627-48.112-67.364-68.4-30.412-29.764-60.037-58.735-84.147-88.25l5.707-8.689q6.108-9.331,12.457-19.242c23.948,30.923,55.536,61.827,88.112,93.688,20.711,20.268,41.828,40.93,62,62.6,14.118-15.158,28.69-29.827,43.261-44.218q14.634.15,27.713.383,8.384.16,16.616.346l-3.464,3.385c-21.018,20.562-48.364,47.96-68.208,69.337l-3.98,4.318Z" fill="#fff" fill-rule="evenodd"/>
    <path id="Path_644" data-name="Path 644" d="M461.788,2360.241l-23.528-.107-5.933-11.556c-14.65-26.064-34.237-41.451-54.951-48.167a87.563,87.563,0,0,0-48.036-1.467,96.615,96.615,0,0,0-42.633,23.127,91.194,91.194,0,0,0-29.222,67.458c0,15.169,3.312,30.1,9.2,44.891q-10.207,16.179-20.206,31.631c-10.36-19.587-17.359-39.7-19.736-60.714h-.888v-15.808a122.562,122.562,0,0,1,39.344-90.572,128.393,128.393,0,0,1,56.6-30.666,119.051,119.051,0,0,1,65.215,2.083c23.436,7.6,45.552,22.973,63.2,47.6a136.547,136.547,0,0,1,29.809-30.047q7.389,13.461,15.494,27.867c-10.243,8.128-19.684,19-27.692,32.943Z" fill="#fff" fill-rule="evenodd"/>
  </g>
</svg>
