<svg xmlns="http://www.w3.org/2000/svg" xmlns:xlink="http://www.w3.org/1999/xlink" width="19.024" height="15.952" viewBox="0 0 19.024 15.952">
  <defs>
    <clipPath id="clip-path">
      <path id="Path_619" data-name="Path 619" d="M508.624,3186.044c.48.72.938,1.39,1.369,2-1.01-.075-2.154-.138-3.4-.187-1.885-.074-3.96-.115-6.11-.115-1.048,0-2.078.009-3.077.028l.006.006q-2.451.029-5.033.176-.71.042-1.408.093c.48-.688,1.119-1.618,1.852-2.731,1.456-2.214,2.484-3.937,3.156-5.066.855-1.437,1.867-3.194,2.97-5.228v0q.412-.739.825-1.524.371-.711.71-1.4c.445.9.965,1.9,1.547,2.974.855,1.577,1.855,3.335,2.957,5.181.74,1.239,1.463,2.416,2.153,3.5" fill="#f15a24" clip-rule="evenodd"/>
    </clipPath>
  </defs>
  <g id="Group_462" data-name="Group 462" transform="translate(-490.969 -3172.09)">
    <g id="Group_461" data-name="Group 461">
      <path id="Path_618" data-name="Path 618" d="M508.624,3186.044c.48.72.938,1.39,1.369,2-1.01-.075-2.154-.138-3.4-.187-1.885-.074-3.96-.115-6.11-.115-1.048,0-2.078.009-3.077.028l.006.006q-2.451.029-5.033.176-.71.042-1.408.093c.48-.688,1.119-1.618,1.852-2.731,1.456-2.214,2.484-3.937,3.156-5.066.855-1.437,1.867-3.194,2.97-5.228v0q.412-.739.825-1.524.371-.711.71-1.4c.445.9.965,1.9,1.547,2.974.855,1.577,1.855,3.335,2.957,5.181.74,1.239,1.463,2.416,2.153,3.5" fill="#f15a24" fill-rule="evenodd"/>
      <g id="Group_460" data-name="Group 460" clip-path="url(#clip-path)">
        <g id="Group_459" data-name="Group 459">
          <rect id="Rectangle_301" data-name="Rectangle 301" width="26.655" height="17.793" transform="translate(485.501 3171.16)" fill="#f15a24"/>
        </g>
      </g>
    </g>
    <path id="Path_620" data-name="Path 620" d="M499.783,3184.894a.7.7,0,1,1,1.367,0,.7.7,0,1,1-1.367,0Zm.191-1.937-.084-5.668h1.153l-.1,5.668Z" fill="#fff"/>
  </g>
</svg>
