<svg xmlns="http://www.w3.org/2000/svg" width="17.98" height="17.972" viewBox="0 0 17.98 17.972">
  <g id="Group_526" data-name="Group 526" transform="translate(-1730.753 -6395.875)">
    <path id="Path_667" data-name="Path 667" d="M1739.691,6413.823c-1.316,0-2.634.045-3.948-.009a4.754,4.754,0,0,1-4.93-4.884q-.118-3.947-.01-7.9c.078-3.055,1.857-4.931,4.911-5.071,2.627-.12,5.268-.112,7.9,0a4.887,4.887,0,0,1,5.054,5.13c.086,2.533.094,5.073.008,7.606-.108,3.2-1.974,5.006-5.179,5.124-1.266.047-2.535.008-3.8.008Zm.068-16.169v-.051c-1.169,0-2.338,0-3.507,0a7.153,7.153,0,0,0-.729.051c-1.69.182-2.865,1.046-2.952,2.694-.158,3-.131,6.023-.017,9.03a2.67,2.67,0,0,0,2.75,2.7c2.911.108,5.836.172,8.742.011a2.8,2.8,0,0,0,2.894-3.049c.1-2.771.1-5.55,0-8.322a2.989,2.989,0,0,0-3.092-3.046C1742.491,6397.578,1741.123,6397.654,1739.759,6397.654Z" fill="#fff"/>
    <path id="Path_668" data-name="Path 668" d="M1739.687,6409.506a4.608,4.608,0,1,1,4.637-4.607A4.529,4.529,0,0,1,1739.687,6409.506Zm-2.965-4.646a2.992,2.992,0,1,0,5.983.1,3.006,3.006,0,0,0-2.943-3.022A3.051,3.051,0,0,0,1736.722,6404.86Z" fill="#fff"/>
    <path id="Path_669" data-name="Path 669" d="M1744.512,6398.632c.487.661,1.031,1.086.971,1.394-.084.428-.62.769-.962,1.147-.357-.375-.907-.705-1.006-1.138C1743.447,6399.74,1744.01,6399.3,1744.512,6398.632Z" fill="#fff"/>
  </g>
</svg>
