<svg xmlns="http://www.w3.org/2000/svg" width="17.116" height="16.937" viewBox="0 0 17.116 16.937">
  <g id="Group_525" data-name="Group 525" transform="translate(-1731.185 -6464.589)">
    <path id="Path_664" data-name="Path 664" d="M1740.758,6481.526h-3.491v-11.018c2.2-.575,3.151-.369,3.506.677a11.268,11.268,0,0,1,2.456-1.119c2.8-.541,4.453.708,4.925,3.567a8.374,8.374,0,0,1,.138,1.308c.014,2.143.007,4.286.007,6.549h-3.551q0-1.737,0-3.474c0-.782.017-1.564-.017-2.344-.08-1.833-.654-2.592-1.911-2.585-1.306.007-2.008.864-2.051,2.664C1740.722,6477.648,1740.758,6479.547,1740.758,6481.526Z" fill="#fff"/>
    <path id="Path_665" data-name="Path 665" d="M1731.527,6470.337h3.406v11.178h-3.406Z" fill="#fff"/>
    <path id="Path_666" data-name="Path 666" d="M1733.241,6468.661a2.008,2.008,0,0,1-2.056-2.009,2.04,2.04,0,0,1,2.027-2.063,2.016,2.016,0,0,1,2.039,2.034A1.96,1.96,0,0,1,1733.241,6468.661Z" fill="#fff"/>
  </g>
</svg>
