<svg xmlns="http://www.w3.org/2000/svg" width="448.008" height="101.825" viewBox="0 0 448.008 101.825">
  <g id="Group_443" data-name="Group 443" transform="translate(-93.928 -57.861)">
    <path id="Path_576" data-name="Path 576" d="M174.449,118.408c-3.026-4.78-6.2-9.945-9.447-15.383-4.833-8.1-9.224-15.815-12.974-22.734-2.554-4.7-4.838-9.1-6.789-13.051-1.923,3.9-4.167,8.218-6.67,12.843a25.308,25.308,0,0,0-4.765-2.11c-.3-.1-.6-.187-.9-.273l.17-.313v-.013c3.588-6.621,6.581-12.479,8.808-17.221l1.057-2.292h4.606l1.057,2.292c2.226,4.742,5.219,10.6,8.807,17.221v.013c3.757,6.929,8.1,14.572,12.837,22.5,2.573,4.311,5.135,8.5,7.643,12.5a39.5,39.5,0,0,1-3.437,6.02" fill="#00a7e1" fill-rule="evenodd"/>
    <path id="Path_577" data-name="Path 577" d="M195.03,137.959l1.519,2.032-2.288,4.03-2.505-.25c-5.482-.522-12.271-.952-19.944-1.252-7.871-.309-16.877-.483-26.574-.483q-3.744,0-7.345.034l-2.86-2.8-.019-.016q-1.652-1.617-3.278-3.215c4.385-.082,8.905-.124,13.5-.124,9.435,0,18.539.181,26.814.506,5.473.215,10.5.492,14.927.822-1.89-2.667-3.9-5.606-6.006-8.766q.732-.936,1.425-1.879,1.265-1.721,2.38-3.461c3.829,5.816,7.308,10.849,10.252,14.826" fill="#00a7e1" fill-rule="evenodd"/>
    <path id="Path_578" data-name="Path 578" d="M125.475,103.025c-4.863,8.147-9.569,15.679-13.851,22.231-2.875,4.4-5.61,8.43-8.126,11.983,3.9-.29,8.254-.54,12.973-.742,1.849,1.965,3.78,3.925,5.76,5.894q-1.82.06-3.566.128c-7.673.3-14.461.729-19.945,1.252l-2.5.25-2.288-4.029,1.519-2.033c3.147-4.254,6.91-9.715,11.056-16.055,4.356-6.661,9.027-14.132,13.731-22.014,2.421-4.057,4.741-8.04,6.935-11.89a13.773,13.773,0,0,1,5.961,1.876c-2.392,4.216-4.955,8.621-7.655,13.149" fill="#00a7e1" fill-rule="evenodd"/>
    <path id="Path_579" data-name="Path 579" d="M172.943,133.907c8.135-8.764,14.434-17.577,15.542-27.377h.172v-3.061a23.644,23.644,0,0,0-7.427-17.354,24.7,24.7,0,0,0-10.981-6.025,23.422,23.422,0,0,0-8.739-.508q1.611,2.922,3.305,5.918a17.649,17.649,0,0,1,3.973.525,18.525,18.525,0,0,1,8.231,4.518,17.6,17.6,0,0,1,5.513,12.926v.059c-.031,10.316-7.926,20.059-17.784,30.1,2.549.07,5.022.151,7.4.244Z" fill="#00205c" fill-rule="evenodd"/>
    <path id="Path_580" data-name="Path 580" d="M142.931,159.686l-.939-1.017c-3.8-4.081-9.029-9.317-13.044-13.246a218.868,218.868,0,0,1-16.295-17.089l1.106-1.683q1.182-1.806,2.412-3.725c4.637,5.987,10.754,11.972,17.062,18.141,4.01,3.925,8.1,7.926,12.006,12.122,2.733-2.936,5.555-5.776,8.377-8.563q2.834.03,5.366.074,1.623.031,3.218.067l-.671.656c-4.07,3.982-9.365,9.287-13.208,13.426l-.771.837Z" fill="#00205c" fill-rule="evenodd"/>
    <path id="Path_581" data-name="Path 581" d="M147.506,97.8l-4.556-.02L141.8,95.539c-2.837-5.047-6.63-8.027-10.641-9.327a16.949,16.949,0,0,0-9.3-.284,18.7,18.7,0,0,0-8.256,4.478,17.66,17.66,0,0,0-5.659,13.063,23.411,23.411,0,0,0,1.782,8.693q-1.976,3.132-3.912,6.125a33.042,33.042,0,0,1-3.822-11.757h-.172v-3.061a23.733,23.733,0,0,1,7.619-17.539A24.868,24.868,0,0,1,120.4,79.992a23.064,23.064,0,0,1,12.629.4,24.218,24.218,0,0,1,12.239,9.219,26.434,26.434,0,0,1,5.772-5.819q1.431,2.607,3,5.4a22.088,22.088,0,0,0-5.362,6.379Z" fill="#00205c" fill-rule="evenodd"/>
    <path id="Path_582" data-name="Path 582" d="M244.03,117.551H220.559v-16.1H214.3V143.3h6.26V123.287H244.03V143.3h6.258V101.448H244.03Z" fill="#00205c" fill-rule="evenodd"/>
    <path id="Path_583" data-name="Path 583" d="M270.762,109.4c-9.061,0-17.145,8.28-17.145,17.343s8.084,17.277,17.145,17.277,17.148-8.215,17.148-17.277S279.826,109.4,270.762,109.4m0,29.143c-6,0-11.149-5.28-11.149-11.8s5.152-11.8,11.149-11.8c6.064,0,11.215,5.282,11.215,11.8s-5.151,11.8-11.215,11.8" fill="#00205c" fill-rule="evenodd"/>
    <path id="Path_584" data-name="Path 584" d="M327.1,109.4a14.205,14.205,0,0,0-11.408,6.456c-2.023-4.239-5.348-6.456-9.976-6.456-4.238,0-6.977,1.695-8.868,4.629l.065-3.911h-6.064V143.3h6.064V126.678c0-6.715,3.326-11.736,7.63-11.736,4.562,0,7.692,3.848,7.692,10.5V143.3H318.3V125.5c0-6.584,3.324-10.562,7.693-10.562s7.629,3.652,7.629,10.5V143.3h6.062V124.135c0-4.825-1.173-8.541-3.585-11.018a12.147,12.147,0,0,0-9-3.717" fill="#00205c" fill-rule="evenodd"/>
    <path id="Path_585" data-name="Path 585" d="M359.244,109.4c-9.064-.131-16.952,8.28-16.952,17.343s7.888,17.407,17.145,17.277a26.414,26.414,0,0,0,7.956-1.369,16.232,16.232,0,0,0,6.65-3.912l-3.326-4.107c-3.976,2.868-7.172,3.976-10.888,3.976a11.876,11.876,0,0,1-11.41-9.583h27.058c0-12.127-6.39-19.495-16.233-19.625M348.55,124.462a11.207,11.207,0,0,1,10.759-9.845c5.411,0,9.519,4.562,10.039,9.845Z" fill="#00205c" fill-rule="evenodd"/>
    <rect id="Rectangle_290" data-name="Rectangle 290" width="5.673" height="41.856" transform="translate(379.323 101.448)" fill="#00205c"/>
    <path id="Path_586" data-name="Path 586" d="M403.254,109.4l-1.3-.066a40.821,40.821,0,0,0-11.215,1.631l1.3,5.151c1.827-.456,3.716-.718,6.324-1.109a15.56,15.56,0,0,1,3.13-.26h.912a1.141,1.141,0,0,1,.522.064c6.26.653,8.215,2.479,8.346,9.259a27.4,27.4,0,0,0-9.454-1.891c-8.28,0-13.432,3.718-13.432,10.757,0,6.911,5.218,11.084,11.736,11.084a14.355,14.355,0,0,0,11.215-4.824V143.3h5.868V125.113c0-11.214-3-15.191-13.952-15.713m8.019,24.189a13.888,13.888,0,0,1-4.173,3.781,10.232,10.232,0,0,1-5.542,1.7c-4.7,0-7.237-2.477-7.237-6.13,0-3.715,2.673-6,8.41-6,2.869,0,4.761.52,8.542,2.02Z" fill="#00205c" fill-rule="evenodd"/>
    <path id="Path_587" data-name="Path 587" d="M437.09,109.4A10.737,10.737,0,0,0,427.7,114.1v-3.977h-5.933V143.3H427.7V125.831c0-6.064,3.522-10.889,8.28-10.889,4.826,0,8.15,3.587,8.15,10.5V143.3h5.933V124.135c0-9.518-5.085-14.735-12.975-14.735" fill="#00205c" fill-rule="evenodd"/>
    <path id="Path_588" data-name="Path 588" d="M478.756,114.747a19.919,19.919,0,0,0-3.065-3.194,12.176,12.176,0,0,0-7.888-2.543c-8.933,0-15.126,7.888-15.126,17.472,0,9.453,6.128,17.6,14.93,17.538,6.194-.063,8.868-1.955,11.214-5.02v4.3h5.868V101.448h-5.933Zm-10.041,23.731c-5.868,0-10.107-5.085-10.107-12,0-6.388,4.239-11.865,10.107-11.865,5.738,0,10.106,5.672,10.106,11.93s-4.368,11.931-10.106,11.931" fill="#00205c" fill-rule="evenodd"/>
    <path id="Path_589" data-name="Path 589" d="M504.379,109.4c-9.063-.131-16.951,8.28-16.951,17.343s7.888,17.407,17.146,17.277a26.413,26.413,0,0,0,7.955-1.369,16.225,16.225,0,0,0,6.65-3.912l-3.326-4.107c-3.977,2.868-7.172,3.976-10.888,3.976a11.876,11.876,0,0,1-11.41-9.583h27.058c0-12.127-6.39-19.495-16.234-19.625m-10.693,15.062a11.207,11.207,0,0,1,10.759-9.845c5.411,0,9.519,4.562,10.039,9.845Z" fill="#00205c" fill-rule="evenodd"/>
    <path id="Path_590" data-name="Path 590" d="M529.157,115.66v-5.542h-5.8V143.3h5.8V126.221c0-5.672,4.956-10.888,12.779-10.888V109.4c-4.5,0-7.5.848-9.519,2.609a15.814,15.814,0,0,0-3.26,3.651" fill="#00205c" fill-rule="evenodd"/>
  </g>
</svg>
