<svg xmlns="http://www.w3.org/2000/svg" width="122.793" height="121.841" viewBox="0 0 122.793 121.841">
  <g id="Group_523" data-name="Group 523" transform="translate(-172.733 -6375.423)">
    <path id="Path_657" data-name="Path 657" d="M269.082,6447.872c-3.621-5.719-7.42-11.9-11.3-18.406-5.783-9.692-11.038-18.924-15.525-27.2-3.055-5.624-5.789-10.883-8.124-15.615-2.3,4.661-4.986,9.833-7.98,15.367a30.264,30.264,0,0,0-5.7-2.524c-.36-.116-.719-.225-1.081-.328l.2-.374v-.015c4.294-7.923,7.875-14.932,10.54-20.607l1.265-2.743h5.511l1.265,2.743c2.664,5.675,6.245,12.684,10.539,20.607v.015c4.5,8.291,9.7,17.436,15.359,26.927,3.08,5.159,6.145,10.17,9.146,14.955a47.3,47.3,0,0,1-4.112,7.2" fill="#fff" fill-rule="evenodd"/>
    <path id="Path_658" data-name="Path 658" d="M293.708,6471.267l1.818,2.432-2.738,4.822-3-.3c-6.56-.625-14.683-1.139-23.865-1.5-9.418-.369-20.194-.578-31.8-.578q-4.48,0-8.789.041l-3.422-3.355-.023-.02q-1.976-1.935-3.922-3.847c5.247-.1,10.655-.148,16.156-.148,11.289,0,22.183.216,32.084.606,6.549.257,12.561.588,17.861.983-2.261-3.191-4.669-6.708-7.186-10.489q.875-1.121,1.7-2.248,1.512-2.06,2.849-4.141c4.58,6.959,8.744,12.981,12.266,17.74" fill="#fff" fill-rule="evenodd"/>
    <path id="Path_659" data-name="Path 659" d="M210.481,6429.466c-5.819,9.748-11.45,18.761-16.574,26.6-3.44,5.261-6.713,10.086-9.723,14.338,4.665-.347,9.876-.646,15.523-.888,2.212,2.351,4.523,4.7,6.892,7.052q-2.177.073-4.267.154c-9.182.36-17.3.873-23.865,1.5l-3,.3-2.737-4.822,1.817-2.432c3.766-5.091,8.269-11.625,13.229-19.211,5.213-7.97,10.8-16.91,16.431-26.341,2.9-4.855,5.673-9.622,8.3-14.228a16.484,16.484,0,0,1,7.133,2.245c-2.861,5.044-5.929,10.316-9.159,15.734" fill="#fff" fill-rule="evenodd"/>
    <path id="Path_660" data-name="Path 660" d="M267.279,6466.418c9.735-10.487,17.272-21.032,18.6-32.758h.2V6430a28.286,28.286,0,0,0-8.887-20.765,29.553,29.553,0,0,0-13.139-7.21,28.041,28.041,0,0,0-10.457-.607q1.928,3.5,3.955,7.08a21.172,21.172,0,0,1,4.754.629,22.172,22.172,0,0,1,9.848,5.406,21.053,21.053,0,0,1,6.6,15.467v.07c-.038,12.345-9.484,24-21.28,36.021,3.049.083,6.009.181,8.857.292Z" fill="#fff" fill-rule="evenodd"/>
    <path id="Path_661" data-name="Path 661" d="M231.369,6497.264l-1.124-1.217c-4.546-4.882-10.8-11.147-15.609-15.849-7.046-6.9-13.911-13.609-19.5-20.448l1.322-2.014q1.416-2.161,2.887-4.458c5.548,7.165,12.867,14.326,20.416,21.708,4.8,4.7,9.691,9.484,14.365,14.5,3.272-3.512,6.648-6.911,10.024-10.245q3.392.034,6.421.088,1.942.037,3.85.08l-.8.785c-4.87,4.764-11.206,11.112-15.8,16.065l-.923,1Z" fill="#fff" fill-rule="evenodd"/>
    <path id="Path_662" data-name="Path 662" d="M236.842,6423.211l-5.451-.025-1.375-2.678c-3.394-6.039-7.933-9.6-12.732-11.16a20.3,20.3,0,0,0-11.131-.34,22.391,22.391,0,0,0-9.878,5.358A21.133,21.133,0,0,0,189.5,6430a27.986,27.986,0,0,0,2.133,10.4q-2.365,3.749-4.682,7.329a39.525,39.525,0,0,1-4.573-14.067h-.206V6430a28.4,28.4,0,0,1,9.116-20.986,29.751,29.751,0,0,1,13.114-7.106,27.589,27.589,0,0,1,15.111.483,28.975,28.975,0,0,1,14.645,11.03,31.61,31.61,0,0,1,6.907-6.962q1.712,3.119,3.59,6.457a26.388,26.388,0,0,0-6.417,7.633Z" fill="#fff" fill-rule="evenodd"/>
  </g>
</svg>
