<svg xmlns="http://www.w3.org/2000/svg" width="71.525" height="70.969" viewBox="0 0 71.525 70.969">
  <g id="Group_448" data-name="Group 448" transform="translate(-294.8 -1249.031)">
    <path id="Path_591" data-name="Path 591" d="M350.921,1291.23c-2.108-3.331-4.321-6.931-6.584-10.721-3.368-5.645-6.429-11.023-9.043-15.845-1.779-3.276-3.371-6.34-4.731-9.1-1.34,2.715-2.9,5.727-4.649,8.951a17.659,17.659,0,0,0-3.321-1.471c-.21-.067-.419-.13-.63-.19l.119-.218v-.009c2.5-4.615,4.587-8.7,6.139-12l.736-1.6h3.211l.736,1.6c1.552,3.306,3.638,7.388,6.139,12v.009c2.618,4.829,5.649,10.156,8.947,15.684,1.793,3.005,3.579,5.924,5.327,8.711a27.457,27.457,0,0,1-2.4,4.195" fill="#00a7e1" fill-rule="evenodd"/>
    <path id="Path_592" data-name="Path 592" d="M365.266,1304.857l1.059,1.417-1.6,2.808-1.746-.174c-3.821-.364-8.552-.663-13.9-.873-5.485-.215-11.762-.336-18.521-.336q-2.61,0-5.119.023l-1.994-1.954-.013-.011q-1.15-1.126-2.284-2.241c3.056-.057,6.206-.086,9.41-.086,6.576,0,12.921.126,18.689.353,3.814.149,7.316.342,10.4.572-1.317-1.858-2.72-3.907-4.186-6.109q.51-.652.994-1.31.881-1.2,1.659-2.412c2.668,4.054,5.093,7.561,7.145,10.333" fill="#00a7e1" fill-rule="evenodd"/>
    <path id="Path_593" data-name="Path 593" d="M316.788,1280.509c-3.389,5.678-6.669,10.928-9.654,15.495-2,3.064-3.91,5.875-5.664,8.351,2.718-.2,5.753-.376,9.043-.517,1.288,1.37,2.634,2.736,4.013,4.108q-1.266.042-2.485.089c-5.348.21-10.078.509-13.9.873l-1.745.175-1.6-2.809,1.059-1.417c2.193-2.965,4.816-6.771,7.706-11.19,3.036-4.642,6.291-9.85,9.57-15.343,1.687-2.828,3.3-5.6,4.833-8.287a9.571,9.571,0,0,1,4.155,1.308c-1.667,2.938-3.454,6.008-5.335,9.164" fill="#00a7e1" fill-rule="evenodd"/>
    <path id="Path_594" data-name="Path 594" d="M349.872,1302.033c5.67-6.109,10.06-12.251,10.832-19.081h.12v-2.134a16.473,16.473,0,0,0-5.177-12.095,17.2,17.2,0,0,0-7.653-4.2,16.325,16.325,0,0,0-6.091-.354q1.123,2.037,2.3,4.124a12.3,12.3,0,0,1,2.769.367,12.9,12.9,0,0,1,5.736,3.148,12.264,12.264,0,0,1,3.843,9.009v.041c-.022,7.191-5.524,13.982-12.395,20.982,1.776.048,3.5.105,5.159.17Z" fill="#00205c" fill-rule="evenodd"/>
    <path id="Path_595" data-name="Path 595" d="M328.954,1320l-.654-.709c-2.648-2.844-6.293-6.493-9.092-9.232a152.575,152.575,0,0,1-11.357-11.91l.771-1.173q.823-1.26,1.681-2.6a131.71,131.71,0,0,0,11.892,12.645c2.795,2.735,5.645,5.524,8.367,8.448,1.906-2.046,3.873-4.026,5.839-5.968q1.975.019,3.74.052,1.133.021,2.243.046l-.468.457c-2.836,2.775-6.527,6.473-9.2,9.358l-.537.583Z" fill="#00205c" fill-rule="evenodd"/>
    <path id="Path_596" data-name="Path 596" d="M332.143,1276.866l-3.176-.015-.8-1.56a13.338,13.338,0,0,0-7.417-6.5,11.808,11.808,0,0,0-6.483-.2,13.033,13.033,0,0,0-5.754,3.121,12.309,12.309,0,0,0-3.944,9.1,16.3,16.3,0,0,0,1.242,6.059q-1.377,2.184-2.727,4.269a23.041,23.041,0,0,1-2.663-8.194h-.12v-2.134a16.545,16.545,0,0,1,5.31-12.224,17.326,17.326,0,0,1,7.638-4.138,16.056,16.056,0,0,1,8.8.281,16.865,16.865,0,0,1,8.53,6.425,18.442,18.442,0,0,1,4.024-4.056c.664,1.211,1.361,2.468,2.091,3.761a15.384,15.384,0,0,0-3.738,4.446Z" fill="#00205c" fill-rule="evenodd"/>
  </g>
</svg>
